<svg width="29" height="29" viewBox="0 0 29 29" fill="none" xmlns="http://www.w3.org/2000/svg">
<path fill-rule="evenodd" clip-rule="evenodd" d="M21.1667 8.66676H20.1917C20.0195 8.17881 19.7002 7.75628 19.2778 7.45741C18.8554 7.15854 18.3508 6.99805 17.8333 6.99805C17.3159 6.99805 16.8112 7.15854 16.3888 7.45741C15.9664 7.75628 15.6472 8.17881 15.475 8.66676H7.83333C7.61232 8.66676 7.40036 8.75455 7.24408 8.91083C7.0878 9.06711 7 9.27908 7 9.50009C7 9.7211 7.0878 9.93306 7.24408 10.0893C7.40036 10.2456 7.61232 10.3334 7.83333 10.3334H15.475C15.6472 10.8214 15.9664 11.2439 16.3888 11.5428C16.8112 11.8416 17.3159 12.0021 17.8333 12.0021C18.3508 12.0021 18.8554 11.8416 19.2778 11.5428C19.7002 11.2439 20.0195 10.8214 20.1917 10.3334H21.1667C21.3877 10.3334 21.5996 10.2456 21.7559 10.0893C21.9122 9.93306 22 9.7211 22 9.50009C22 9.27908 21.9122 9.06711 21.7559 8.91083C21.5996 8.75455 21.3877 8.66676 21.1667 8.66676ZM17.8333 10.3334C18.0543 10.3334 18.2663 10.2456 18.4226 10.0893C18.5789 9.93306 18.6667 9.7211 18.6667 9.50009C18.6667 9.27908 18.5789 9.06711 18.4226 8.91083C18.2663 8.75455 18.0543 8.66676 17.8333 8.66676C17.6123 8.66676 17.4004 8.75455 17.2441 8.91083C17.0878 9.06711 17 9.27908 17 9.50009C17 9.7211 17.0878 9.93306 17.2441 10.0893C17.4004 10.2456 17.6123 10.3334 17.8333 10.3334ZM7 14.5001C7 14.2791 7.0878 14.0671 7.24408 13.9108C7.40036 13.7546 7.61232 13.6668 7.83333 13.6668H8.80833C8.9805 13.1788 9.29978 12.7563 9.72217 12.4574C10.1446 12.1585 10.6492 11.998 11.1667 11.998C11.6841 11.998 12.1888 12.1585 12.6112 12.4574C13.0336 12.7563 13.3528 13.1788 13.525 13.6668H21.1667C21.3877 13.6668 21.5996 13.7546 21.7559 13.9108C21.9122 14.0671 22 14.2791 22 14.5001C22 14.7211 21.9122 14.9331 21.7559 15.0893C21.5996 15.2456 21.3877 15.3334 21.1667 15.3334H13.525C13.3528 15.8214 13.0336 16.2439 12.6112 16.5428C12.1888 16.8416 11.6841 17.0021 11.1667 17.0021C10.6492 17.0021 10.1446 16.8416 9.72217 16.5428C9.29978 16.2439 8.9805 15.8214 8.80833 15.3334H7.83333C7.61232 15.3334 7.40036 15.2456 7.24408 15.0893C7.0878 14.9331 7 14.7211 7 14.5001ZM11.1667 15.3334C11.3877 15.3334 11.5996 15.2456 11.7559 15.0893C11.9122 14.9331 12 14.7211 12 14.5001C12 14.2791 11.9122 14.0671 11.7559 13.9108C11.5996 13.7546 11.3877 13.6668 11.1667 13.6668C10.9457 13.6668 10.7337 13.7546 10.5774 13.9108C10.4211 14.0671 10.3333 14.2791 10.3333 14.5001C10.3333 14.7211 10.4211 14.9331 10.5774 15.0893C10.7337 15.2456 10.9457 15.3334 11.1667 15.3334ZM7.83333 18.6668C7.61232 18.6668 7.40036 18.7546 7.24408 18.9108C7.0878 19.0671 7 19.2791 7 19.5001C7 19.7211 7.0878 19.9331 7.24408 20.0893C7.40036 20.2456 7.61232 20.3334 7.83333 20.3334H15.475C15.6472 20.8214 15.9664 21.2439 16.3888 21.5428C16.8112 21.8416 17.3159 22.0021 17.8333 22.0021C18.3508 22.0021 18.8554 21.8416 19.2778 21.5428C19.7002 21.2439 20.0195 20.8214 20.1917 20.3334H21.1667C21.3877 20.3334 21.5996 20.2456 21.7559 20.0893C21.9122 19.9331 22 19.7211 22 19.5001C22 19.2791 21.9122 19.0671 21.7559 18.9108C21.5996 18.7546 21.3877 18.6668 21.1667 18.6668H20.1917C20.0195 18.1788 19.7002 17.7563 19.2778 17.4574C18.8554 17.1585 18.3508 16.998 17.8333 16.998C17.3159 16.998 16.8112 17.1585 16.3888 17.4574C15.9664 17.7563 15.6472 18.1788 15.475 18.6668H7.83333ZM18.6667 19.5001C18.6667 19.7211 18.5789 19.9331 18.4226 20.0893C18.2663 20.2456 18.0543 20.3334 17.8333 20.3334C17.6123 20.3334 17.4004 20.2456 17.2441 20.0893C17.0878 19.9331 17 19.7211 17 19.5001C17 19.2791 17.0878 19.0671 17.2441 18.9108C17.4004 18.7546 17.6123 18.6668 17.8333 18.6668C18.0543 18.6668 18.2663 18.7546 18.4226 18.9108C18.5789 19.0671 18.6667 19.2791 18.6667 19.5001Z" fill="#43B888"/>
</svg>
