<svg width="9" height="12" viewBox="0 0 9 12" fill="none" xmlns="http://www.w3.org/2000/svg">
<path d="M8.27621 10.3968H0.553911C0.40762 10.3968 0.26732 10.4549 0.163876 10.5584C0.0604325 10.6618 0.00231832 10.8021 0.00231832 10.9484C0.00231832 11.0947 0.0604325 11.235 0.163876 11.3384C0.26732 11.4419 0.40762 11.5 0.553911 11.5H8.27621C8.4225 11.5 8.5628 11.4419 8.66625 11.3384C8.76969 11.235 8.8278 11.0947 8.8278 10.9484C8.8278 10.8021 8.76969 10.6618 8.66625 10.5584C8.5628 10.4549 8.4225 10.3968 8.27621 10.3968ZM0.553911 9.29362H0.603555L2.9037 9.08402C3.15566 9.05892 3.39132 8.9479 3.57112 8.76961L8.53546 3.80528C8.72814 3.60172 8.83227 3.33008 8.82503 3.04989C8.81779 2.7697 8.69978 2.5038 8.49685 2.31046L6.98548 0.799096C6.78823 0.613814 6.52975 0.507501 6.25922 0.500382C5.98868 0.493263 5.72497 0.585833 5.51825 0.760485L0.553911 5.72482C0.375617 5.90462 0.264603 6.14028 0.239503 6.39225L0.00231832 8.69239C-0.00511221 8.77318 0.00537102 8.85462 0.0330206 8.93089C0.0606703 9.00716 0.104805 9.0764 0.16228 9.13366C0.213821 9.18478 0.274946 9.22523 0.342151 9.25268C0.409356 9.28013 0.481318 9.29404 0.553911 9.29362ZM6.21877 1.57133L7.72462 3.07717L6.62143 4.15278L5.14316 2.67451L6.21877 1.57133ZM1.30959 6.48602L4.41506 3.40261L5.90436 4.89191L2.81544 7.98083L1.16066 8.13528L1.30959 6.48602Z" fill="#43B989"/>
</svg>
