<svg width="12" height="16" viewBox="0 0 12 16" fill="none" xmlns="http://www.w3.org/2000/svg">
<path d="M5.53556 11.0715C6.41646 11.0715 7.26129 10.7216 7.88418 10.0987C8.50707 9.47577 8.85701 8.63095 8.85701 7.75005V3.32145C8.85701 2.44055 8.50707 1.59572 7.88418 0.97283C7.26129 0.349937 6.41646 0 5.53556 0C4.65466 0 3.80983 0.349937 3.18694 0.97283C2.56405 1.59572 2.21411 2.44055 2.21411 3.32145V7.75005C2.21411 8.63095 2.56405 9.47577 3.18694 10.0987C3.80983 10.7216 4.65466 11.0715 5.53556 11.0715Z" fill="white"/>
<path d="M10.5179 6.08936C10.3711 6.08936 10.2303 6.14768 10.1265 6.25149C10.0227 6.35531 9.96435 6.49611 9.96435 6.64293V7.75008C9.96435 8.92462 9.49776 10.051 8.66724 10.8816C7.83672 11.7121 6.71029 12.1787 5.53575 12.1787C4.36121 12.1787 3.23478 11.7121 2.40426 10.8816C1.57373 10.051 1.10715 8.92462 1.10715 7.75008V6.64293C1.10715 6.49611 1.04883 6.35531 0.945011 6.25149C0.841196 6.14768 0.700392 6.08936 0.553575 6.08936C0.406758 6.08936 0.265954 6.14768 0.162138 6.25149C0.058323 6.35531 4.37331e-10 6.49611 4.37331e-10 6.64293V7.75008C-1.72402e-05 9.12242 0.509714 10.4459 1.4303 11.4636C2.35089 12.4814 3.61671 13.1209 4.98217 13.2582V14.393H2.76787C2.62106 14.393 2.48025 14.4513 2.37644 14.5551C2.27262 14.6589 2.2143 14.7997 2.2143 14.9466C2.2143 15.0934 2.27262 15.2342 2.37644 15.338C2.48025 15.4418 2.62106 15.5001 2.76787 15.5001H8.30362C8.45044 15.5001 8.59124 15.4418 8.69506 15.338C8.79887 15.2342 8.8572 15.0934 8.8572 14.9466C8.8572 14.7997 8.79887 14.6589 8.69506 14.5551C8.59124 14.4513 8.45044 14.393 8.30362 14.393H6.08932V13.2582C7.45479 13.1209 8.7206 12.4814 9.64119 11.4636C10.5618 10.4459 11.0715 9.12242 11.0715 7.75008V6.64293C11.0715 6.49611 11.0132 6.35531 10.9094 6.25149C10.8055 6.14768 10.6647 6.08936 10.5179 6.08936Z" fill="white"/>
</svg>
