<svg width="20" height="30" viewBox="0 0 20 30" fill="none" xmlns="http://www.w3.org/2000/svg">
<path d="M10.3169 13.8529C10.1923 13.8409 10.0428 13.8409 9.90568 13.8529C6.93976 13.7564 4.58447 11.4019 4.58447 8.50404C4.58447 5.54585 7.05192 3.14307 10.1175 3.14307C13.1707 3.14307 15.6506 5.54585 15.6506 8.50404C15.6381 11.4019 13.2828 13.7564 10.3169 13.8529Z" stroke="#A9ADC8" stroke-width="2" stroke-linecap="round" stroke-linejoin="round"/>
<path d="M4.08592 18.3081C1.07016 20.2641 1.07016 23.4517 4.08592 25.3957C7.51293 27.6173 13.1332 27.6173 16.5602 25.3957C19.576 23.4396 19.576 20.252 16.5602 18.3081C13.1457 16.0985 7.52539 16.0985 4.08592 18.3081Z" stroke="#A9ADC8" stroke-width="2" stroke-linecap="round" stroke-linejoin="round"/>
</svg>
